<?xml version="1.0" encoding="UTF-8"?>
<svg id="Calque_1" data-name="Calque 1" xmlns="http://www.w3.org/2000/svg" viewBox="0 0 1845 200.5">
  <defs>
    <style>
      .cls-1 {
        fill: none;
        stroke: #34beed;
        stroke-miterlimit: 10;
        stroke-width: 5px;
      }

      .cls-2 {
        fill: #d5d6dc;
      }
    </style>
  </defs>
  <rect class="cls-2" y="4.5" width="322.56" height="196"/>
  <polygon class="cls-2" points="542.56 66.78 433.93 30.48 372.29 13.2 328.33 4.89 328.33 200.5 1845 200.5 1845 3.44 1704.93 3.44 1651 3.44 1546.11 3.44 1509.37 6.84 1479.15 11.3 1456.04 16.62 1436.19 23.21 1413.07 30.86 1389.07 37.23 1366.85 45.95 1338.7 55.09 1310.26 61.47 1301.32 64.75 1283.89 69.97 1263.15 74.22 1243.59 75.92 1212.48 78.26 1192.93 80.19 1166.26 80.19 1134.85 80.19 1101.67 80.19 874.11 78.26 819 78.04 793.81 78.47 742.26 78.04 714.7 78.89 655.74 77.83 622.26 77.41 599.44 77.41 542.56 66.78"/>
  <rect class="cls-2" x="318.33" y="4.89" width="14" height="195.61"/>
  <polyline id="lIGNE_bleu_top" data-name="lIGNE  bleu top" class="cls-1" points="0 2.5 240.75 2.5 311 2.5 335.93 5.94 358.65 9.91 379.17 14.85 403.71 21.04 420.67 25.69 446.6 35.05 468.04 42.54 486.81 48.77 509.58 55.61 535.03 63.38 553.32 67.7 573.38 72.01 595.66 75.66 616.59 78.05 1038.42 80.19 1207.3 78.87 1225.51 77.77 1252.58 74.69 1275.62 70.37 1301.32 64.75 1326.11 58.18 1351.76 50.01 1382.71 38.93 1415.88 27.83 1450.39 17.36 1483.16 9.77 1512.87 5.07 1539.95 2.5 1845 2.5"/>
</svg>