<?xml version="1.0" encoding="UTF-8"?>
<svg id="Calque_1" data-name="Calque 1" xmlns="http://www.w3.org/2000/svg" viewBox="0 0 18 18">
  <defs>
    <style>
      .cls-1 {
        fill: #7b7b7d;
      }
    </style>
  </defs>
  <path class="cls-1" d="M4,18c-1.1,0-2.04-.39-2.83-1.18-.78-.78-1.18-1.73-1.18-2.83s.39-2.04,1.18-2.83c.78-.78,1.73-1.18,2.83-1.18.38,0,.74.05,1.06.14s.64.23.94.41V2L18,0v12c0,1.1-.39,2.04-1.18,2.83-.78.78-1.73,1.18-2.83,1.18s-2.04-.39-2.83-1.18c-.78-.78-1.18-1.73-1.18-2.83s.39-2.04,1.18-2.83c.78-.78,1.73-1.18,2.83-1.18.38,0,.74.05,1.06.14.33.09.64.23.94.41v-4.13l-8,1.58v8c0,1.1-.39,2.04-1.18,2.83s-1.73,1.18-2.83,1.18Z"/>
</svg>