<?xml version="1.0" encoding="UTF-8"?>
<svg id="Layer_1" data-name="Layer 1" xmlns="http://www.w3.org/2000/svg" xmlns:xlink="http://www.w3.org/1999/xlink" viewBox="0 0 1920 1052.31">
  <defs>
    <style>
      .cls-1 {
        fill: url(#Dégradé_sans_nom_3);
      }
    </style>
    <linearGradient id="Dégradé_sans_nom_3" data-name="Dégradé sans nom 3" x1="0" y1="526.15" x2="1920" y2="526.15" gradientUnits="userSpaceOnUse">
      <stop offset="0" stop-color="#070806"/>
      <stop offset="1" stop-color="#000"/>
    </linearGradient>
  </defs>
  <path class="cls-1" d="M1251.92,1052.31H0V0h1920v1052.31h-668.08M1895.96,380.19c-.38-18.03-.73-36.07-1.16-54.1-.32-13.43-.78-26.86-1.12-40.3-.42-16.89-.75-33.79-1.18-50.68-.31-12.09-.76-24.17-1.12-36.26-.41-14.01-.83-28.02-1.16-42.03-.21-9.03-.14-18.07-.47-27.09-.19-5.36-.63-10.74-1.43-16.04-3.6-23.8-14.08-44.06-31.55-60.71-15.79-15.04-34.4-24.6-55.95-27.48-12.51-1.67-25.24-1.81-37.89-2.16-21.69-.6-43.4-.84-65.1-1.21-22.47-.39-44.94-.78-67.41-1.15-24.2-.4-48.4-.78-72.6-1.16-25.16-.39-50.32-.78-75.48-1.15-28.24-.41-56.48-.79-84.71-1.16-30.74-.4-61.47-.81-92.21-1.15-38.24-.42-76.47-.82-114.71-1.15-23.07-.2-46.14-.26-69.21-.4-42.28-.25-84.56-.67-126.84-.71-28.24-.03-56.49.55-84.73.71-36.53.21-73.06.21-109.59.42-24.01.14-48.03.5-72.04.75-37.47.39-74.94.74-112.4,1.16-30.93.34-61.86.74-92.79,1.15-27.66.36-55.32.75-82.98,1.15-25.35.37-50.71.76-76.06,1.15-24.2.38-48.4.75-72.6,1.15-22.47.37-44.94.81-67.41,1.13-14.41.21-28.83.22-43.25.42-13.05.18-26.11.35-39.16.85-5.34.21-10.73.93-15.97,2.02-21.27,4.42-39.51,14.36-54.7,30.05-14.03,14.49-22.86,31.56-27.26,51.17-3.06,13.65-1.98,27.53-3.02,41.28-.93,12.24-.89,24.55-1.26,36.83-.4,13.62-.79,27.25-1.16,40.88-.39,14.2-.79,28.4-1.15,42.61-.41,16.12-.8,32.25-1.16,48.37-.41,18.24-.82,36.48-1.15,54.72-.43,24.2-.89,48.4-1.14,72.6-.26,25.57-.37,51.14-.38,76.71-.01,18.65.16,37.29.37,55.94.15,13.25.53,26.49.74,39.74.41,25.35.73,50.71,1.18,76.06.29,16.7.74,33.4,1.13,50.1.38,16.7.75,33.4,1.17,50.1.34,13.63.76,27.25,1.13,40.87.39,14.39.79,28.79,1.16,43.18.42,16.12.79,32.25,1.21,48.37.08,2.88.16,5.77.5,8.63,3.08,25.51,13.36,47.47,32.09,65.34,19.66,18.76,43.23,28.2,70.15,29.25,18.61.73,37.24.86,55.87,1.21,22.47.42,44.94.78,67.41,1.17,22.66.39,45.32.78,67.99,1.14,25.35.41,50.71.78,76.06,1.16,26.12.39,52.24.8,78.37,1.14,32.08.42,64.17.79,96.25,1.16,12.88.15,25.75.26,38.63.39,25.55.26,51.1.51,76.66.77,11.72.12,23.45.26,35.17.38,24.78.26,49.57.63,74.35.75,45.18.22,90.36.37,135.55.39,31.34.02,62.67-.18,94.01-.38,29.98-.19,59.95-.51,89.92-.77,44.39-.38,88.78-.73,133.17-1.16,33.05-.32,66.09-.74,99.13-1.14,29.2-.36,58.4-.75,87.6-1.15,26.32-.36,52.63-.78,78.95-1.14,29.2-.4,58.4-.72,87.6-1.17,18.43-.29,36.86-.79,55.29-1.12,23.62-.43,47.25-.74,70.87-1.17,17.28-.32,34.62.05,51.82-1.33,28.58-2.29,51.97-15.45,70.46-37.2,16.63-19.57,23.74-42.68,24.54-68.02.37-11.89.78-23.79,1.14-35.68.41-13.82.78-27.63,1.17-41.45.37-13.05.79-26.1,1.13-39.15.42-15.93.79-31.86,1.18-47.8.39-16.12.81-32.25,1.13-48.37.43-21.7.82-43.4,1.17-65.1.19-11.72.26-23.45.38-35.17.26-23.44.65-46.87.73-70.31.04-12.28-.57-24.57-.71-36.85-.43-40.54-.78-81.09-1.16-122.79Z"/>
</svg>